<svg width="200" height="40" viewBox="0 0 200 40" fill="none" xmlns="http://www.w3.org/2000/svg">
<path d="M72.372 16.5774C72.372 13.1683 70.0604 9.84509 65.0899 9.84509H52.2322V30.0707H56.5672V13.4851H64.4563C66.8843 13.4851 68.0391 14.6705 68.0391 16.5774C68.0391 18.5129 66.8823 19.6983 64.4563 19.6983H61.1004C59.5798 19.6983 58.7254 20.5526 58.7254 22.0732V23.3404H61.133C62.2592 23.3404 63.0972 23.7165 63.7921 24.6116L68.0677 30.0727H73.3837L67.4321 22.5024C70.6102 21.7769 72.372 19.6963 72.372 16.5774Z" fill="#151515"/>
<path d="M87.9561 9.84302H83.6212V30.0686H87.9561V9.84302Z" fill="#151515"/>
<path d="M121.362 9.84302H116.739L109.4 25.5048L102.06 9.84302H97.4373L107.088 30.0706H111.711L121.362 9.84302Z" fill="#151515"/>
<path d="M135.256 9.84302H130.921V30.0686H135.256V9.84302Z" fill="#151515"/>
<path d="M159.299 9.84302H154.676L144.737 30.0686H149.36L150.603 27.4689C151.122 26.3713 151.932 25.8788 153.146 25.8788H160.659L159.763 23.9719C159.214 22.7865 158.318 22.2387 156.99 22.2387H153.148L156.99 14.2638L164.617 30.0686H169.241L159.299 9.84302Z" fill="#151515"/>
<path d="M200 9.84302H195.81V24.8691L183.703 9.84302H178.734V30.0706H182.924V15.0445L195.029 30.0706H200V9.84302Z" fill="#151515"/>
<path d="M41.0775 18.4107C38.7496 16.0092 26.1556 3.01871 23.795 1.14454C22.9713 0.484384 21.9106 0 20.5801 0C19.2475 0 18.1868 0.484384 17.3652 1.14454C15.0045 3.01871 2.40852 16.0092 0.0806168 18.4107C-0.109458 18.6294 0.0622225 18.9727 0.348356 18.9727C1.51129 18.9727 4.20708 18.9768 5.83191 18.9768C6.40418 18.9768 6.57381 18.8767 6.93352 18.4904C7.29324 18.1041 9.08362 16.1829 9.08362 16.1829C11.3604 13.7283 16.9135 8.3081 18.943 6.59948C19.7053 5.95772 20.5678 5.97816 20.5801 5.97816C20.5923 5.97816 21.4548 5.95772 22.2172 6.59948C24.2467 8.31015 29.7997 13.7303 32.0765 16.1829C32.0765 16.1829 33.8669 18.1041 34.2266 18.4904C34.5863 18.8767 34.756 18.9768 35.3282 18.9768C36.951 18.9768 39.6489 18.9727 40.8118 18.9727C41.0979 18.9748 41.2676 18.6294 41.0775 18.4107Z" fill="#151515"/>
<path d="M0.0802304 21.5029C2.40813 23.9044 15.0021 36.8949 17.3627 38.769C18.1864 39.4292 19.2471 39.9136 20.5776 39.9136C21.9102 39.9136 22.9709 39.4292 23.7926 38.769C26.1532 36.8949 38.7471 23.9044 41.0751 21.5029C41.2651 21.2842 41.0934 20.9409 40.8073 20.9409C39.6444 20.9409 36.9486 20.9368 35.3238 20.9368C34.7515 20.9368 34.5819 21.0369 34.2221 21.4232C33.8624 21.8095 32.0721 23.7307 32.0721 23.7307C29.7952 26.1853 24.2422 31.6055 22.2127 33.3141C21.4504 33.9559 20.5879 33.9354 20.5756 33.9354C20.5633 33.9354 19.7008 33.9559 18.9385 33.3141C16.909 31.6034 11.356 26.1832 9.07914 23.7307C9.07914 23.7307 7.28876 21.8095 6.92905 21.4232C6.56934 21.0369 6.3997 20.9368 5.82744 20.9368C4.20465 20.9368 1.50681 20.9409 0.343882 20.9409C0.0618361 20.9409 -0.109844 21.2842 0.0802304 21.5029Z" fill="#151515"/>
<path d="M19.057 24.2519C18.0188 23.3036 16.1896 21.5295 15.509 20.7345C15.1983 20.383 15.2187 19.9435 15.2187 19.9435C15.2187 19.9435 15.1983 19.5041 15.509 19.1526C16.1896 18.3575 18.0188 16.5835 19.057 15.6352C19.4821 15.2387 19.5843 14.9893 19.5843 14.5029C19.5843 12.9987 19.5843 10.1782 19.5843 9.10929C19.5843 8.89265 19.3309 8.75775 19.1347 8.93965C16.8191 11.0836 11.6605 16.1952 9.9314 18.1756C9.10366 19.0524 9.18132 19.9456 9.18132 19.9456C9.18132 19.9456 9.1057 20.8367 9.9314 21.7155C11.6625 23.696 16.8211 28.8076 19.1347 30.9515C19.3411 31.1314 19.5843 31.019 19.5843 30.7635C19.5843 29.6925 19.5843 26.8905 19.5843 25.3862C19.5843 24.8957 19.4821 24.6464 19.057 24.2519Z" fill="#151515"/>
<path d="M22.1023 24.256C23.1406 23.3077 24.9698 21.5337 25.6504 20.7386C25.961 20.3871 25.9406 19.9477 25.9406 19.9477C25.9406 19.9477 25.961 19.5082 25.6504 19.1567C24.9698 18.3617 23.1406 16.5876 22.1023 15.6393C21.6772 15.2428 21.575 14.9935 21.575 14.507C21.575 13.0028 21.575 10.2007 21.575 9.12976C21.575 8.87428 21.8182 8.76187 22.0247 8.94173C24.3403 11.0857 29.4989 16.1973 31.2279 18.1777C32.0536 19.0545 31.978 19.9477 31.978 19.9477C31.978 19.9477 32.0536 20.8388 31.2279 21.7176C29.4968 23.6981 24.3382 28.8096 22.0247 30.9536C21.8182 31.1335 21.575 31.021 21.575 30.7656C21.575 29.6946 21.575 26.8925 21.575 25.3883C21.5771 24.8998 21.6772 24.6525 22.1023 24.256Z" fill="#151515"/>
</svg>
