<svg width="32" height="32" viewBox="0 0 32 32" fill="none" xmlns="http://www.w3.org/2000/svg">
<rect width="32" height="32" fill="#FAFAFA"/>
<g clip-path="url(#clip0_2067_61717)">
<g clip-path="url(#clip1_2067_61717)">
<path d="M21.6313 21.6347H19.262V17.922C19.262 17.0367 19.244 15.8973 18.0273 15.8973C16.792 15.8973 16.6033 16.8607 16.6033 17.8567V21.6347H14.234V14H16.51V15.0407H16.5407C16.8587 14.4407 17.632 13.8073 18.7873 13.8073C21.188 13.8073 21.632 15.3873 21.632 17.444V21.6347H21.6313ZM11.558 12.9553C10.7953 12.9553 10.1827 12.338 10.1827 11.5787C10.1827 10.82 10.796 10.2033 11.558 10.2033C12.318 10.2033 12.934 10.82 12.934 11.5787C12.934 12.338 12.3173 12.9553 11.558 12.9553ZM12.746 21.6347H10.37V14H12.746V21.6347ZM22.8167 8H9.18067C8.528 8 8 8.516 8 9.15267V22.8473C8 23.4847 8.528 24 9.18067 24H22.8147C23.4667 24 24 23.4847 24 22.8473V9.15267C24 8.516 23.4667 8 22.8147 8H22.8167Z" fill="black"/>
</g>
</g>
<defs>
<clipPath id="clip0_2067_61717">
<rect width="16" height="16" fill="white" transform="translate(8 8)"/>
</clipPath>
<clipPath id="clip1_2067_61717">
<rect width="16" height="16" fill="white" transform="translate(8 8)"/>
</clipPath>
</defs>
</svg>
