<svg width="32" height="32" viewBox="0 0 32 32" fill="none" xmlns="http://www.w3.org/2000/svg">
<rect width="32" height="32" fill="#FAFAFA"/>
<path d="M23.6633 12.1362C23.5706 11.804 23.3938 11.5014 23.15 11.2575C22.9061 11.0137 22.6035 10.8369 22.2713 10.7442C21.0247 10.4102 16.0073 10.4102 16.0073 10.4102C16.0073 10.4102 11.0027 10.4035 9.74332 10.7442C9.41116 10.8369 9.10853 11.0137 8.86468 11.2575C8.62084 11.5014 8.44402 11.804 8.35132 12.1362C8.115 13.4125 7.99849 14.7081 8.00332 16.0062C7.9994 17.2993 8.11591 18.59 8.35132 19.8615C8.44402 20.1937 8.62084 20.4963 8.86468 20.7401C9.10853 20.984 9.41116 21.1608 9.74332 21.2535C10.9887 21.5882 16.0073 21.5882 16.0073 21.5882C16.0073 21.5882 21.0113 21.5882 22.2713 21.2535C22.6035 21.1608 22.9061 20.984 23.15 20.7401C23.3938 20.4963 23.5706 20.1937 23.6633 19.8615C23.8938 18.5895 24.0054 17.2988 23.9967 16.0062C24.0063 14.7086 23.8947 13.413 23.6633 12.1362V12.1362ZM14.406 18.4002V13.6048L18.582 16.0062L14.406 18.4002Z" fill="black"/>
</svg>
