<svg width="32" height="32" viewBox="0 0 32 32" fill="none" xmlns="http://www.w3.org/2000/svg">
<rect width="32" height="32" fill="#FAFAFA"/>
<g clip-path="url(#clip0_2880_71586)">
<path d="M16 8C13.8267 8 13.5553 8.01 12.702 8.048C11.85 8.088 11.27 8.222 10.76 8.42C10.234 8.624 9.78733 8.898 9.34267 9.34267C8.898 9.78733 8.62333 10.2333 8.42 10.76C8.222 11.27 8.08733 11.85 8.048 12.702C8.008 13.5553 8 13.8267 8 16C8 18.1733 8.01 18.4447 8.048 19.298C8.088 20.1493 8.222 20.73 8.42 21.24C8.624 21.7653 8.898 22.2127 9.34267 22.6573C9.78733 23.1013 10.2333 23.3767 10.76 23.58C11.2707 23.7773 11.8507 23.9127 12.702 23.952C13.5553 23.992 13.8267 24 16 24C18.1733 24 18.4447 23.99 19.298 23.952C20.1493 23.912 20.73 23.7773 21.24 23.58C21.7653 23.376 22.2127 23.1013 22.6573 22.6573C23.1013 22.2127 23.3767 21.7673 23.58 21.24C23.7773 20.73 23.9127 20.1493 23.952 19.298C23.992 18.4447 24 18.1733 24 16C24 13.8267 23.99 13.5553 23.952 12.702C23.912 11.8507 23.7773 11.2693 23.58 10.76C23.376 10.234 23.1013 9.78733 22.6573 9.34267C22.2127 8.898 21.7673 8.62333 21.24 8.42C20.73 8.222 20.1493 8.08733 19.298 8.048C18.4447 8.008 18.1733 8 16 8ZM16 9.44C18.1353 9.44 18.39 9.45067 19.2333 9.48733C20.0133 9.524 20.4367 9.65333 20.718 9.764C21.0927 9.90867 21.358 10.082 21.6393 10.3613C21.9187 10.6413 22.092 10.9073 22.2367 11.282C22.346 11.5633 22.4767 11.9867 22.512 12.7667C22.55 13.6107 22.5587 13.864 22.5587 16C22.5587 18.136 22.5487 18.39 22.5093 19.2333C22.4687 20.0133 22.3387 20.4367 22.2287 20.718C22.0793 21.0927 21.9093 21.358 21.6293 21.6393C21.35 21.9187 21.08 22.092 20.7093 22.2367C20.4293 22.346 19.9993 22.4767 19.2193 22.512C18.37 22.55 18.12 22.5587 15.98 22.5587C13.8393 22.5587 13.5893 22.5487 12.7407 22.5093C11.96 22.4687 11.53 22.3387 11.25 22.2287C10.8707 22.0793 10.61 21.9093 10.3307 21.6293C10.05 21.35 9.87067 21.08 9.73067 20.7093C9.62067 20.4293 9.49133 19.9993 9.45067 19.2193C9.42067 18.3793 9.41 18.12 9.41 15.99C9.41 13.8593 9.42067 13.5993 9.45067 12.7493C9.49133 11.9693 9.62067 11.54 9.73067 11.26C9.87067 10.88 10.05 10.62 10.3307 10.3393C10.61 10.06 10.8707 9.88 11.25 9.74067C11.53 9.63 11.9507 9.5 12.7307 9.46C13.5807 9.43 13.8307 9.42 15.97 9.42L16 9.44ZM16 11.892C13.73 11.892 11.892 13.732 11.892 16C11.892 18.27 13.732 20.108 16 20.108C18.27 20.108 20.108 18.268 20.108 16C20.108 13.73 18.268 11.892 16 11.892ZM16 18.6667C14.5267 18.6667 13.3333 17.4733 13.3333 16C13.3333 14.5267 14.5267 13.3333 16 13.3333C17.4733 13.3333 18.6667 14.5267 18.6667 16C18.6667 17.4733 17.4733 18.6667 16 18.6667ZM21.2307 11.73C21.2307 12.26 20.8 12.69 20.2707 12.69C19.7407 12.69 19.3107 12.2593 19.3107 11.73C19.3107 11.2007 19.7413 10.7707 20.2707 10.7707C20.7993 10.77 21.2307 11.2007 21.2307 11.73Z" fill="black"/>
</g>
<defs>
<clipPath id="clip0_2880_71586">
<rect width="16" height="16" fill="white" transform="translate(8 8)"/>
</clipPath>
</defs>
</svg>
