<svg width="94" height="19" viewBox="0 0 94 19" fill="none" xmlns="http://www.w3.org/2000/svg">
<path d="M33.7191 7.73476C33.7191 6.14645 32.6421 4.59814 30.3264 4.59814H24.3359V14.0213H26.3556V6.29405H30.0312C31.1624 6.29405 31.7004 6.84633 31.7004 7.73476C31.7004 8.63651 31.1614 9.18879 30.0312 9.18879H28.4676C27.7592 9.18879 27.3611 9.58682 27.3611 10.2953V10.8856H28.4829C29.0075 10.8856 29.3979 11.0609 29.7217 11.4779L31.7137 14.0223H34.1905L31.4176 10.4952C32.8983 10.1572 33.7191 9.18784 33.7191 7.73476Z" fill="white"/>
<path d="M40.9806 4.59656H38.9609V14.0197H40.9806V4.59656Z" fill="white"/>
<path d="M56.5451 4.59656H54.3912L50.9718 11.8934L47.5524 4.59656H45.3984L49.8948 14.0207H52.0487L56.5451 4.59656Z" fill="white"/>
<path d="M63.0158 4.59656H60.9961V14.0197H63.0158V4.59656Z" fill="white"/>
<path d="M74.2182 4.59656H72.0642L67.4336 14.0197H69.5875L70.1665 12.8085C70.4083 12.2972 70.7854 12.0677 71.351 12.0677H74.8514L74.4343 11.1792C74.1782 10.627 73.7611 10.3718 73.1422 10.3718H71.352L73.1422 6.65621L76.6958 14.0197H78.8498L74.2182 4.59656Z" fill="white"/>
<path d="M93.1813 4.59656H91.2292V11.5973L85.5883 4.59656H83.2734V14.0207H85.2255V7.01996L90.8655 14.0207H93.1813V4.59656Z" fill="white"/>
<path d="M19.1379 8.58821C18.0533 7.46935 12.1857 1.41705 11.0859 0.543863C10.7022 0.236296 10.208 0.0106201 9.58809 0.0106201C8.96725 0.0106201 8.47304 0.236296 8.09025 0.543863C6.99044 1.41705 1.12191 7.46935 0.0373321 8.58821C-0.0512243 8.6901 0.0287622 8.85007 0.162073 8.85007C0.703886 8.85007 1.95986 8.85198 2.71688 8.85198C2.9835 8.85198 3.06253 8.80532 3.23012 8.62535C3.39771 8.44538 4.23186 7.55029 4.23186 7.55029C5.29263 6.40668 7.87981 3.88139 8.82537 3.08534C9.18054 2.78634 9.58238 2.79586 9.58809 2.79586C9.59381 2.79586 9.99564 2.78634 10.3508 3.08534C11.2964 3.88234 13.8836 6.40763 14.9443 7.55029C14.9443 7.55029 15.7785 8.44538 15.9461 8.62535C16.1137 8.80532 16.1927 8.85198 16.4593 8.85198C17.2154 8.85198 18.4723 8.85007 19.0141 8.85007C19.1474 8.85102 19.2265 8.6901 19.1379 8.58821Z" fill="white"/>
<path d="M0.0373796 10.0289C1.12196 11.1478 6.98953 17.2001 8.08935 18.0732C8.47309 18.3808 8.96729 18.6065 9.58719 18.6065C10.208 18.6065 10.7022 18.3808 11.085 18.0732C12.1848 17.2001 18.0524 11.1478 19.137 10.0289C19.2256 9.92701 19.1456 9.76704 19.0123 9.76704C18.4704 9.76704 17.2145 9.76514 16.4575 9.76514C16.1908 9.76514 16.1118 9.8118 15.9442 9.99176C15.7766 10.1717 14.9425 11.0668 14.9425 11.0668C13.8817 12.2104 11.2945 14.7357 10.349 15.5318C9.99379 15.8308 9.59195 15.8213 9.58624 15.8213C9.58052 15.8213 9.17869 15.8308 8.82351 15.5318C7.87795 14.7348 5.29077 12.2095 4.23 11.0668C4.23 11.0668 3.39586 10.1717 3.22827 9.99176C3.06068 9.8118 2.98164 9.76514 2.71502 9.76514C1.95896 9.76514 0.702029 9.76704 0.160216 9.76704C0.0288096 9.76704 -0.0511768 9.92701 0.0373796 10.0289Z" fill="white"/>
<path d="M8.87937 11.3096C8.39564 10.8678 7.54341 10.0413 7.22632 9.67087C7.08158 9.50708 7.0911 9.30236 7.0911 9.30236C7.0911 9.30236 7.08158 9.09763 7.22632 8.93385C7.54341 8.56343 8.39564 7.73691 8.87937 7.29508C9.07743 7.11035 9.12504 6.99418 9.12504 6.76755C9.12504 6.06671 9.12504 4.75265 9.12504 4.25464C9.12504 4.15371 9.00697 4.09086 8.91556 4.17561C7.83669 5.17448 5.43329 7.55599 4.62771 8.47869C4.24206 8.88719 4.27825 9.30331 4.27825 9.30331C4.27825 9.30331 4.24302 9.71848 4.62771 10.1279C5.43424 11.0506 7.83764 13.4321 8.91556 14.431C9.01173 14.5148 9.12504 14.4624 9.12504 14.3434C9.12504 13.8444 9.12504 12.539 9.12504 11.8381C9.12504 11.6096 9.07743 11.4934 8.87937 11.3096Z" fill="white"/>
<path d="M10.2965 11.3116C10.7802 10.8698 11.6324 10.0432 11.9495 9.67281C12.0942 9.50903 12.0847 9.30431 12.0847 9.30431C12.0847 9.30431 12.0942 9.09958 11.9495 8.9358C11.6324 8.56538 10.7802 7.73886 10.2965 7.29703C10.0984 7.1123 10.0508 6.99613 10.0508 6.7695C10.0508 6.06866 10.0508 4.76317 10.0508 4.26421C10.0508 4.14518 10.1641 4.09281 10.2603 4.1766C11.3391 5.17548 13.7425 7.55698 14.5481 8.47968C14.9328 8.88819 14.8976 9.30431 14.8976 9.30431C14.8976 9.30431 14.9328 9.71947 14.5481 10.1289C13.7416 11.0516 11.3382 13.4331 10.2603 14.432C10.1641 14.5158 10.0508 14.4634 10.0508 14.3444C10.0508 13.8454 10.0508 12.5399 10.0508 11.8391C10.0517 11.6115 10.0984 11.4963 10.2965 11.3116Z" fill="white"/>
</svg>
