<svg width="32" height="32" viewBox="0 0 32 32" fill="none" xmlns="http://www.w3.org/2000/svg">
<rect width="32" height="32" fill="#FAFAFA"/>
<g clip-path="url(#clip0_2880_71584)">
<path d="M23.9693 11.0457C23.3793 11.3051 22.7493 11.4817 22.086 11.5624C22.762 11.1551 23.282 10.5131 23.528 9.74707C22.894 10.1171 22.1913 10.3864 21.4433 10.5364C20.846 9.89707 19.9947 9.49707 19.0493 9.49707C17.238 9.49707 15.7693 10.9657 15.7693 12.7751C15.7693 13.0351 15.7993 13.2851 15.854 13.5244C13.1273 13.3957 10.7107 12.0864 9.09333 10.1071C8.80867 10.5884 8.64933 11.1477 8.64933 11.7571C8.64933 12.8971 9.22933 13.8991 10.108 14.4877C9.57 14.4704 9.064 14.3224 8.62267 14.0771V14.1177C8.62267 15.7077 9.75133 17.0337 11.2533 17.3357C10.978 17.4097 10.6873 17.4497 10.3893 17.4497C10.18 17.4497 9.97933 17.4297 9.77867 17.3924C10.1993 18.6944 11.4087 19.6437 12.848 19.6704C11.728 20.5497 10.3087 21.0737 8.78 21.0737C8.52 21.0737 8.26067 21.0584 8 21.0291C9.45933 21.9584 11.1787 22.5017 13.038 22.5017C19.074 22.5017 22.3707 17.5044 22.3707 13.1777C22.3707 13.0384 22.3707 12.8977 22.3607 12.7577C23.0013 12.2984 23.5607 11.7177 24.0007 11.0591L23.9693 11.0457Z" fill="black"/>
</g>
<defs>
<clipPath id="clip0_2880_71584">
<rect width="16" height="16" fill="white" transform="translate(8 8)"/>
</clipPath>
</defs>
</svg>
